<svg width="112" height="53" viewBox="0 0 112 53" fill="none" xmlns="http://www.w3.org/2000/svg">
<path d="M4.52779 5.34192C4.8633 2.30135 7.45484 -0.0796202 10.4798 0.375826C18.7521 1.62134 21.9872 5.60937 30.125 6.92814C33.2829 7.4399 35.9441 9.86603 36.1013 13.0613L37.4301 40.0803C37.5985 43.5056 34.8668 46.375 31.4373 46.375H6.69849C3.12424 46.375 0.342663 43.2696 0.734684 39.7169L4.52779 5.34192Z" fill="black"/>
<path d="M8.31549 15.275C8.31549 11.9613 11.0398 9.15497 14.2729 9.88131C18.6293 10.86 21.0949 12.7724 25.541 13.7068C28.6604 14.3624 31.3277 16.739 31.5003 19.9218L32.2383 33.5339C32.4392 37.2401 29.2608 40.2379 25.5727 39.8207L13.6411 38.4711C10.6077 38.128 8.3155 35.5619 8.3155 32.5091L8.31549 15.275Z" fill="white"/>
<path d="M44.6938 7.02539L53.3754 6.83984C53.447 6.92448 54.0883 7.64388 55.2993 8.99805C56.5102 10.3457 57.6398 11.6152 58.6879 12.8066V8.50977C58.7009 7.77409 58.7205 7.25 58.7465 6.9375L64.5668 6.86914L64.5864 11.6445C64.5864 12.8229 64.5733 14.4603 64.5473 16.5566L64.518 18.7734L64.5375 20.3945C64.4008 20.4206 63.9223 20.4792 63.102 20.5703C62.2882 20.6549 60.5304 20.9447 57.8286 21.4395L50.5532 14.916C50.462 18.4772 50.4164 20.4303 50.4164 20.7754V20.8828C50.0844 20.8893 49.1827 20.9251 47.7114 20.9902C46.2465 21.0553 45.117 21.0879 44.3227 21.0879C44.3552 20.6126 44.3715 20.0267 44.3715 19.3301C44.3715 18.627 44.4236 17.2402 44.5278 15.1699C44.6384 13.0931 44.6938 11.5306 44.6938 10.4824V7.02539ZM73.1614 6.86914L74.8606 6.84961C74.8866 7.01237 74.8996 7.1849 74.8996 7.36719L74.8508 8.67578L74.5871 20.9023L72.7219 20.9512C72.7219 20.9512 71.0194 20.9674 67.6145 21C67.595 20.8112 67.5852 20.5703 67.5852 20.2773C67.5852 20.2773 67.6959 15.8503 67.9172 6.99609C69.356 6.91146 71.1041 6.86914 73.1614 6.86914ZM84.8028 21C84.8028 21 82.4297 21.0195 77.6836 21.0586C77.6901 20.707 77.7097 20.1569 77.7422 19.4082C77.7813 18.6595 77.8041 18.1354 77.8106 17.8359L78.0059 6.94727H87.459L93.6895 6.84961C94.2559 6.84961 94.6954 6.88867 95.0079 6.9668C95.0079 7.13607 94.9753 7.42904 94.9102 7.8457C94.8516 8.25586 94.8125 8.55859 94.793 8.75391L94.6075 10.4141C94.1062 10.4857 93.6016 10.528 93.0938 10.541C93.0938 10.541 90.4701 10.5736 85.2227 10.6387C85.1836 11.0814 85.1511 11.8203 85.125 12.8555C88.3607 12.8229 90.2032 12.8066 90.6524 12.8066C91.1081 12.8066 91.5248 12.8457 91.9024 12.9238C91.9024 13.3861 91.7559 14.3561 91.4629 15.834C90.571 15.9251 89.5944 15.974 88.5332 15.9805L84.9883 16L84.8028 21ZM55.4946 45.9609C55.4946 45.9609 53.268 46.0228 48.8149 46.1465L49.02 39.4668C49.072 37.8522 49.1209 36.6087 49.1664 35.7363H43.8344C43.8474 35.4629 43.8963 34.8802 43.9809 33.9883C44.0655 33.0964 44.1437 32.4225 44.2153 31.9668C50.2504 31.8887 54.4431 31.8496 56.7934 31.8496C59.1502 31.8496 60.7615 31.8594 61.6274 31.8789C61.4256 33.6107 61.1944 34.8965 60.934 35.7363H55.8461L55.7875 37.8457C55.5857 42.5788 55.4848 45.1146 55.4848 45.4531C55.4848 45.7852 55.4881 45.9544 55.4946 45.9609ZM74.3723 31.8984C74.4895 31.8789 75.6744 31.8691 77.927 31.8691C80.1861 31.8691 81.3157 31.8854 81.3157 31.918C81.3157 31.9505 81.2896 32.0059 81.2375 32.084L81.0911 32.3281L74.9778 40.5215L74.7239 45.9219L73.3664 45.9805L67.8391 46.0977C67.7675 45.6549 67.7317 43.9525 67.7317 40.9902L61.8723 31.9375L69.0598 31.7617L71.7258 35.7266L74.3723 31.8984Z" fill="black"/>
</svg>
